<?xml version="1.0" standalone="no"?>
<!DOCTYPE svg PUBLIC "-//W3C//DTD SVG 20010904//EN"
 "http://www.w3.org/TR/2001/REC-SVG-20010904/DTD/svg10.dtd">
<svg version="1.0" xmlns="http://www.w3.org/2000/svg"
 width="512.000000pt" height="512.000000pt" viewBox="0 0 512.000000 512.000000"
 preserveAspectRatio="xMidYMid meet">
<metadata>
Created by potrace 1.14, written by Peter Selinger 2001-2017
</metadata>
<g transform="translate(0.000000,512.000000) scale(0.100000,-0.100000)"
fill="#000000" stroke="none">
<path d="M2417 4564 c-3 -3 -29 -6 -59 -8 -30 -1 -58 -5 -64 -7 -5 -3 -24 -5
-41 -4 -18 1 -33 -1 -33 -4 0 -3 -10 -6 -22 -7 -35 -1 -116 -14 -141 -22 -12
-5 -29 -8 -37 -7 -8 1 -22 -2 -31 -6 -9 -5 -31 -11 -50 -14 -18 -3 -39 -11
-46 -17 -7 -6 -13 -8 -13 -5 0 3 -20 0 -44 -7 -25 -8 -47 -11 -50 -8 -4 3 -6
-1 -6 -8 0 -7 -3 -11 -6 -8 -3 3 -29 -1 -57 -9 -70 -19 -68 -19 -97 -30 -14
-6 -35 -9 -47 -8 -13 1 -23 -1 -23 -5 0 -3 -35 -17 -77 -30 -43 -13 -84 -27
-90 -33 -7 -5 -13 -6 -13 -2 0 4 -6 3 -12 -2 -7 -5 -35 -18 -63 -28 -27 -10
-88 -38 -135 -63 -47 -25 -97 -51 -112 -59 -16 -8 -28 -18 -28 -22 0 -4 -16
-13 -35 -21 -19 -8 -35 -17 -35 -21 0 -4 -17 -18 -37 -31 -20 -12 -44 -27 -52
-33 -20 -13 -75 -60 -118 -102 -19 -18 -35 -33 -37 -33 -9 0 -106 -101 -106
-110 0 -6 -4 -8 -10 -5 -6 3 -10 3 -10 -2 0 -4 -23 -32 -50 -62 -27 -30 -48
-56 -46 -58 2 -3 -7 -16 -21 -31 -68 -73 -253 -400 -263 -464 0 -4 -9 -28 -20
-54 -11 -25 -18 -50 -15 -54 3 -5 1 -11 -5 -15 -6 -4 -8 -11 -5 -16 4 -5 2 -9
-3 -9 -5 0 -9 -6 -10 -12 -1 -19 -10 -57 -15 -66 -3 -4 -8 -23 -11 -42 -3 -19
-8 -46 -11 -60 -23 -99 -25 -338 -4 -351 11 -7 11 -9 1 -9 -7 0 -10 -5 -7 -11
4 -5 9 -25 11 -42 3 -18 8 -39 11 -47 3 -8 8 -28 10 -45 3 -16 8 -31 13 -33 5
-2 6 -10 3 -18 -3 -8 0 -14 7 -14 6 0 8 -5 5 -11 -8 -12 89 -208 117 -238 10
-11 18 -23 18 -26 0 -6 41 -54 97 -112 17 -18 36 -33 42 -33 6 0 11 -4 11 -10
0 -30 301 -188 390 -204 14 -2 42 -11 62 -20 21 -9 40 -16 43 -16 3 0 6 0 8
-1 9 -3 45 -11 62 -13 11 -2 21 -5 23 -6 3 -4 20 -7 39 -9 9 0 14 -4 10 -7 -3
-4 0 -19 8 -34 8 -15 11 -30 8 -34 -4 -3 -1 -6 5 -6 6 0 13 -9 17 -20 12 -38
79 -126 154 -202 42 -43 79 -78 83 -78 5 0 18 -9 30 -20 13 -10 25 -18 28 -17
3 1 20 -8 38 -21 17 -13 32 -21 32 -18 0 3 15 -2 33 -12 17 -10 39 -17 47 -17
8 0 17 -3 20 -6 14 -19 263 -30 325 -15 28 7 84 16 113 18 6 1 12 5 12 10 0 5
10 8 23 7 12 -2 28 1 36 6 10 5 16 4 19 -3 2 -7 21 -31 43 -55 21 -23 39 -45
39 -49 0 -5 5 -8 11 -8 6 0 22 -9 37 -20 14 -11 56 -30 95 -42 57 -17 84 -19
151 -14 44 3 93 9 108 12 21 5 27 2 33 -17 10 -31 135 -153 174 -169 17 -7 28
-16 25 -21 -3 -5 -2 -9 3 -7 4 1 38 -13 76 -30 37 -18 73 -32 80 -32 7 0 17
-4 23 -10 5 -5 22 -11 37 -12 15 -1 27 -6 27 -10 0 -4 8 -7 18 -7 17 1 77 -8
77 -11 0 -6 120 -22 172 -24 24 0 43 -5 43 -11 0 -6 3 -6 8 0 4 6 27 11 52 11
74 1 164 15 179 27 12 10 13 9 7 -2 -7 -10 -3 -10 15 2 13 8 37 18 53 21 32 8
118 46 126 57 3 3 15 9 28 13 12 4 22 12 22 17 0 5 5 9 10 9 6 0 16 5 23 10 7
6 26 22 42 36 17 14 47 39 67 57 21 17 38 37 38 43 0 7 6 14 13 17 17 6 99
130 121 182 10 22 23 54 31 70 7 17 16 38 19 48 3 9 9 16 13 16 4 -1 17 1 28
5 120 44 163 63 221 98 38 23 71 45 72 50 2 4 8 8 13 8 4 0 30 20 56 45 26 24
51 45 56 45 4 0 7 7 7 15 0 8 4 15 9 15 16 0 113 154 103 164 -3 3 -1 6 5 6
12 0 47 79 68 155 9 33 19 67 22 75 4 8 5 19 4 24 -1 4 4 14 10 22 9 11 9 14
0 14 -8 0 -9 6 -3 18 5 9 10 50 11 91 1 40 7 85 13 100 6 14 12 28 12 31 1 3
4 10 7 15 18 29 35 95 48 180 8 60 2 240 -9 240 -1 0 -4 14 -6 30 -4 28 -15
57 -36 98 -5 10 -6 22 -3 27 4 6 0 12 -7 15 -8 3 -15 15 -15 27 -1 12 -6 24
-10 27 -18 13 -66 124 -69 159 -6 72 -28 167 -55 234 -54 137 -133 256 -217
327 -23 19 -44 46 -47 62 -4 16 -11 29 -16 29 -6 0 -7 5 -4 10 3 6 1 10 -4 10
-6 0 -11 5 -11 12 0 13 -51 91 -62 96 -5 2 -8 8 -8 13 0 6 -6 17 -12 25 -27
32 -150 149 -166 158 -9 5 -21 15 -25 23 -4 7 -15 13 -22 13 -8 0 -15 5 -15
10 0 6 -6 10 -14 10 -8 0 -16 3 -18 8 -1 4 -25 18 -53 32 -27 14 -53 29 -56
33 -3 4 -10 7 -15 5 -5 -1 -19 3 -31 10 -13 7 -23 11 -23 9 0 -2 -34 29 -76
69 -42 41 -82 74 -89 74 -7 0 -18 7 -25 15 -7 9 -29 23 -49 32 -20 9 -38 19
-41 22 -5 6 -41 23 -87 42 -16 6 -36 15 -45 20 -10 5 -27 9 -38 9 -11 0 -20 4
-20 8 0 4 -8 9 -17 10 -22 2 -58 10 -58 12 0 2 -35 10 -65 15 -14 2 -38 7 -55
10 -16 4 -44 8 -61 9 -17 2 -37 6 -44 11 -9 6 -11 4 -5 -5 6 -9 4 -11 -6 -5
-7 5 -34 10 -59 10 -25 1 -65 8 -90 15 -25 6 -53 14 -63 16 -10 2 -26 5 -35 8
-9 3 -37 7 -62 10 -25 3 -56 8 -70 10 -14 3 -49 7 -78 10 -29 3 -57 8 -64 12
-7 5 -8 3 -3 -5 5 -10 3 -11 -11 -4 -21 11 -93 11 -110 0 -6 -3 -14 -3 -18 0
-10 10 -76 10 -76 0 0 -4 -8 -3 -19 2 -10 6 -21 8 -24 5z"/>
</g>
</svg>
